# xmcd
# Track frame offsets:
# 150
# 8558
# 17105
# 29260
# 41032
# 52977
# 64458
# 75434
# 85354
# 94834
# 103499
# 112409
# 122508
# 133811
# 148540
# 158277
# 169799
# 179995
#
# Disc length: 2484 seconds
# Revision: 2
# Processed by: cddbd v1.5.2PL0 Copyright (c) Steve Scherf et al.
# Submitted via: VisiTrax 2.11.3.279 - For more info visit www.synapsa.com
#
DISCID=f809b212
DTITLE=Johnny Cash - Original Sun Sound Of Johnny Cash
DYEAR=1965
DGENRE=Country
TTITLE0=Always Alone
TTITLE1=Country Boy
TTITLE2=Goodnight Irene
TTITLE3=Wide Open Road
TTITLE4=Thanks A Lot
TTITLE5=Big River
TTITLE6=Belshazah
TTITLE7=Born To Lose
TTITLE8=New Mexico
TTITLE9=I Forgot To Remember To Forget
TTITLE10=Two Timing Woman
TTITLE11=The Story Of A Broken Heart
TTITLE12=Wide Open Road [Bonus Track] [Originally Unissued Undubbed Master]
TTITLE13=Big River [Bonus Track] [Originally Unissued Alternate Take]
TTITLE14=Born To Lose [Bonus Track] [Originally Unissued Undubbed Master]
TTITLE15=The Story Of A Broken Heart [Bonus Track] [Originally Unissued Alterna
TTITLE15=te Take]
TTITLE16=Get Rythym [Bonus Track] [Originally Unissued Alternate Take]
TTITLE17=One More Ride [Incomplete] [Bonus Track]  [Originally Unissued On Sun]
EXTD=Varese Sarabande Records, Inc.
EXTT0=
EXTT1=
EXTT2=
EXTT3=
EXTT4=
EXTT5=
EXTT6=
EXTT7=
EXTT8=
EXTT9=
EXTT10=
EXTT11=
EXTT12=
EXTT13=
EXTT14=
EXTT15=
EXTT16=
EXTT17=
PLAYORDER=
